<?xml version="1.0" encoding="iso-8859-1"?>
<!-- Generator: Adobe Illustrator 19.0.0, SVG Export Plug-In . SVG Version: 6.00 Build 0)  -->
<svg version="1.1" id="Capa_1" xmlns="http://www.w3.org/2000/svg" xmlns:xlink="http://www.w3.org/1999/xlink" x="0px" y="0px"
	 viewBox="0 0 501.323 501.323" style="enable-background:new 0 0 501.323 501.323;" xml:space="preserve">
<g>
	<path style="fill:#2196F3;" d="M497.317,242.196l-106.667-85.333c-4.603-3.676-11.315-2.924-14.991,1.679
		c-1.511,1.892-2.333,4.241-2.331,6.662v170.667c-0.003,5.891,4.769,10.669,10.661,10.673c2.421,0.001,4.77-0.821,6.662-2.331
		l106.667-85.333c4.601-3.679,5.348-10.391,1.669-14.992c-0.493-0.616-1.053-1.176-1.669-1.669V242.196z"/>
	<path style="fill:#2196F3;" d="M121.957,155.604c-3.695-1.778-8.082-1.28-11.285,1.28L4.005,242.218
		c-4.601,3.679-5.348,10.391-1.669,14.992c0.493,0.616,1.053,1.176,1.669,1.669l106.667,85.333
		c4.603,3.676,11.315,2.924,14.991-1.679c1.511-1.892,2.333-4.241,2.331-6.662V165.204
		C127.991,161.111,125.645,157.381,121.957,155.604z"/>
	<path style="fill:#2196F3;" d="M330.661,367.871H159.995c-5.891-0.013-10.677,4.752-10.69,10.643
		c-0.005,2.436,0.823,4.801,2.349,6.701l85.333,106.667c3.679,4.601,10.391,5.348,14.992,1.669c0.616-0.493,1.176-1.053,1.669-1.669
		l85.333-106.667c3.676-4.603,2.924-11.315-1.679-14.991c-1.892-1.511-4.241-2.333-6.662-2.331L330.661,367.871z"/>
	<path style="fill:#2196F3;" d="M253.669,9.215c-4.028-4.601-11.023-5.065-15.624-1.038c-0.368,0.323-0.715,0.669-1.038,1.038
		l-85.333,106.667c-3.676,4.603-2.924,11.315,1.679,14.991c1.886,1.506,4.227,2.328,6.641,2.331h170.667
		c5.891,0.003,10.669-4.769,10.673-10.661c0.001-2.421-0.821-4.77-2.331-6.662L253.669,9.215z"/>
</g>
<circle style="fill:#1976D2;" cx="245.328" cy="250.538" r="74.667"/>
<g>
</g>
<g>
</g>
<g>
</g>
<g>
</g>
<g>
</g>
<g>
</g>
<g>
</g>
<g>
</g>
<g>
</g>
<g>
</g>
<g>
</g>
<g>
</g>
<g>
</g>
<g>
</g>
<g>
</g>
</svg>
